# xmcd
#
# Track frame offsets: 
#        150
#        21139
#        36560
#        61154
#        80858
#        103903
#        121111
#        140105
#        151709
#        169494
#        181400
#        192237
#        204302
#        226406
#
# Disc length: 3273 seconds
#
# Revision: 0
# Processed by: cddbd v1.5.2PL0 Copyright (c) Steve Scherf et al.
# Submitted via: ExactAudioCopyFreeDBPlugin 1.0
#
DISCID=c40cc70e
DTITLE=26B - STE20试音极品TESTCD
DYEAR=2015
DGENRE=STE
TTITLE0=Bridge Overy Troubled Water
TTITLE1=O Que Trago E.O Que Trazes Singer
TTITLE2=Bressanone
TTITLE3=无所谓
TTITLE4=传奇
TTITLE5=野花
TTITLE6=When I Fall In Love
TTITLE7=紫竹调
TTITLE8=Perpetual Motion
TTITLE9=Hungarian Dances NO.1
TTITLE10=Turkish March
TTITLE11=Take Me Back And Try Me One More Time
TTITLE12=吉他低泣时
TTITLE13=滚核桃
EXTD=
EXTT0=
EXTT1=
EXTT2=
EXTT3=
EXTT4=
EXTT5=
EXTT6=
EXTT7=
EXTT8=
EXTT9=
EXTT10=
EXTT11=
EXTT12=
EXTT13=
PLAYORDER=
